<svg xmlns="http://www.w3.org/2000/svg" viewBox="0 0 1200 630">
  <defs>
    <linearGradient id="bg" x1="0" y1="0" x2="0" y2="1">
      <stop offset="0" stop-color="#e7f1e4"/><stop offset="1" stop-color="#fdfaf3"/>
    </linearGradient>
    <radialGradient id="sun" cx="0.5" cy="0.5" r="0.5">
      <stop offset="0" stop-color="#ffe39a"/><stop offset="1" stop-color="#f2b134"/>
    </radialGradient>
  </defs>
  <rect width="1200" height="630" fill="url(#bg)"/>
  <circle cx="1010" cy="130" r="90" fill="url(#sun)"/>
  <!-- palm -->
  <rect x="980" y="250" width="20" height="240" rx="8" fill="#8a6a3e"/>
  <g fill="#2f6b3c">
    <path d="M990 250 q-100 -28 -140 26 q86 -14 140 8 z"/>
    <path d="M990 250 q100 -28 140 26 q-86 -14 -140 8 z"/>
    <path d="M990 248 q-58 -86 -14 -150 q34 64 32 144 z"/>
    <path d="M990 248 q58 -86 14 -150 q-34 64 -32 144 z"/>
  </g>
  <!-- shrubs -->
  <g fill="#4f9a5c"><circle cx="940" cy="470" r="70"/><circle cx="1030" cy="480" r="56"/></g>
  <g fill="#e8743b"><circle cx="916" cy="446" r="12"/><circle cx="958" cy="436" r="12"/><circle cx="1024" cy="456" r="11"/></g>
  <g fill="#7a3bd6" opacity="0.8"><circle cx="900" cy="486" r="11"/><circle cx="1050" cy="492" r="10"/></g>
  <!-- text -->
  <text x="90" y="250" font-family="Georgia, 'Times New Roman', serif" font-size="92" font-weight="bold" fill="#1f4026">Yankee Gardener</text>
  <text x="94" y="312" font-family="system-ui, Arial, sans-serif" font-size="34" letter-spacing="3" fill="#d65a36">NORTHEAST ROOTS &#183; FLORIDA SOIL</text>
  <text x="92" y="392" font-family="system-ui, Arial, sans-serif" font-size="36" fill="#56605a">Learning to garden in the Sunshine State,</text>
  <text x="92" y="440" font-family="system-ui, Arial, sans-serif" font-size="36" fill="#56605a">one sandy bed at a time.</text>
  <rect x="92" y="500" width="320" height="8" rx="4" fill="#e8743b"/>
</svg>
